<svg width="25" height="25" viewBox="0 0 32 32" fill="none" xmlns="http://www.w3.org/2000/svg">
<path d="M27.125 17.0469L16.7531 5.09375C16.6593 4.98559 16.5434 4.89884 16.4132 4.83939C16.283 4.77994 16.1415 4.74918 15.9984 4.74918C15.8553 4.74918 15.7138 4.77994 15.5836 4.83939C15.4534 4.89884 15.3375 4.98559 15.2437 5.09375L4.87497 17.0469C4.84364 17.0829 4.82332 17.1272 4.81644 17.1744C4.80956 17.2217 4.81641 17.2699 4.83617 17.3134C4.85593 17.3568 4.88776 17.3937 4.92788 17.4196C4.96801 17.4455 5.01472 17.4593 5.06247 17.4594H7.59372C7.73747 17.4594 7.87497 17.3969 7.97184 17.2875L14.8125 9.40312V27C14.8125 27.1375 14.925 27.25 15.0625 27.25H16.9375C17.075 27.25 17.1875 27.1375 17.1875 27V9.40312L24.0281 17.2875C24.1218 17.3969 24.2593 17.4594 24.4062 17.4594H26.9375C27.15 17.4594 27.2656 17.2094 27.125 17.0469Z" fill="white"/>
</svg>
