<svg width="25" height="25" viewBox="0 0 32 32" fill="none" xmlns="http://www.w3.org/2000/svg">
<path d="M4.87503 14.9531L15.2469 26.9063C15.3407 27.0144 15.4566 27.1012 15.5868 27.1606C15.717 27.2201 15.8585 27.2508 16.0016 27.2508C16.1447 27.2508 16.2862 27.2201 16.4164 27.1606C16.5466 27.1012 16.6625 27.0144 16.7563 26.9063L27.125 14.9531C27.1564 14.9171 27.1767 14.8728 27.1836 14.8256C27.1904 14.7783 27.1836 14.7301 27.1638 14.6866C27.1441 14.6432 27.1122 14.6063 27.0721 14.5804C27.032 14.5545 26.9853 14.5407 26.9375 14.5406H24.4063C24.2625 14.5406 24.125 14.6031 24.0282 14.7125L17.1875 22.5969L17.1875 5.00002C17.1875 4.86252 17.075 4.75002 16.9375 4.75002H15.0625C14.925 4.75002 14.8125 4.86252 14.8125 5.00002L14.8125 22.5969L7.9719 14.7125C7.87815 14.6031 7.74066 14.5406 7.59378 14.5406L5.06253 14.5406C4.85003 14.5406 4.73441 14.7906 4.87503 14.9531Z" fill="white"/>
</svg>
