<svg width="18" height="18" viewBox="0 0 20 20" fill="none" xmlns="http://www.w3.org/2000/svg">
<path d="M10 1.66577C14.6034 1.66577 18.335 5.39744 18.335 10.0008C18.335 14.6033 14.6034 18.3349 10 18.3349C5.3967 18.3349 1.66504 14.6033 1.66504 10.0008C1.66504 5.39744 5.3967 1.66577 10 1.66577ZM9.9967 8.54077C9.79248 8.54105 9.59547 8.61631 9.44308 8.75227C9.29069 8.88822 9.19352 9.0754 9.17004 9.27827L9.1642 9.37494L9.1667 13.9599L9.17254 14.0574C9.19603 14.2607 9.29346 14.4482 9.44628 14.5842C9.59909 14.7202 9.79661 14.7953 10.0012 14.7951C10.2058 14.7949 10.4031 14.7194 10.5557 14.5831C10.7082 14.4467 10.8053 14.2591 10.8284 14.0558L10.8334 13.9583L10.8309 9.37411L10.825 9.27661C10.801 9.0739 10.7033 8.8871 10.5506 8.75161C10.3979 8.61613 10.2008 8.5414 9.9967 8.54161V8.54077ZM10 5.41661C9.72344 5.41661 9.45817 5.52648 9.26258 5.72207C9.067 5.91765 8.95712 6.18292 8.95712 6.45952C8.95712 6.73612 9.067 7.00139 9.26258 7.19698C9.45817 7.39256 9.72344 7.50244 10 7.50244C10.2766 7.50244 10.5419 7.39256 10.7375 7.19698C10.9331 7.00139 11.043 6.73612 11.043 6.45952C11.043 6.18292 10.9331 5.91765 10.7375 5.72207C10.5419 5.52648 10.2766 5.41661 10 5.41661V5.41661Z" fill="#CACACA"/>
</svg>
