<svg width="30" height="30" viewBox="0 0 32 32" fill="none" xmlns="http://www.w3.org/2000/svg">
<path d="M16 31C24.2843 31 31 24.2843 31 16C31 7.71573 24.2843 1 16 1C7.71573 1 1 7.71573 1 16C1 24.2843 7.71573 31 16 31Z" fill="#6C63FF"/>
<path d="M9.09998 23.7L4.59998 25.75C4.99998 26.25 5.44998 26.7 5.89998 27.1L9.69997 25.3L9.09998 23.7Z" fill="white"/>
<path d="M8.55 17.55L1 15.85V16C1 16.55 1.05 17.1 1.1 17.65L8.2 19.25L8.55 17.55" fill="white"/>
<path d="M27.4 25.75L22.9 23.7L22.25 25.35L26.05 27.15C26.55 26.7 26.95 26.25 27.4 25.75" fill="white"/>
<path d="M23.85 19.25L30.95 17.65C31 17.1 31.05 16.55 31.05 16V15.85L23.5 17.6L23.85 19.25Z" fill="white"/>
<path opacity="0.1" d="M24.95 19.95C24.95 25.25 20.95 29.5 16 29.5C11.05 29.5 7.04999 25.2 7.04999 19.95C7.04999 14.65 12.25 15.7 16 15.7C19.75 15.65 24.95 14.65 24.95 19.95Z" fill="black"/>
<path d="M24.75 19.55C24.75 24.55 20.85 28.55 16 28.55C11.15 28.55 7.25 24.5 7.25 19.55C7.25 14.55 12.35 15.5 16 15.5C19.65 15.5 24.75 14.55 24.75 19.55Z" fill="white"/>
<path d="M17.9 10.4C18.9 14.8 23 15.9 26.05 12.6C26.2 12.45 25.95 12.3 25.7 11.95C23.25 13 20 12 18.55 10.05C18.15 10.15 17.85 10.15 17.9 10.4Z" fill="#292F33"/>
<path d="M5.90002 12.6C8.95002 15.9 13.05 14.8 14.05 10.4C14.1 10.2 13.8 10.15 13.45 10.05C11.85 12.2 8.50002 12.95 6.25002 12C6.00002 12.25 5.75002 12.4 5.90002 12.6" fill="#292F33"/>
<path d="M26.6 8.5C25 7.15 22.85 6.55 20.75 6.95C20.45 7 20.2 5.95 20.55 5.85C22.95 5.4 25.45 6.1 27.3 7.65C27.6 7.9 26.8 8.7 26.6 8.5Z" fill="#221B8F"/>
<path d="M11.25 6.85C9.14997 6.5 6.99997 7.05 5.39997 8.4C5.19997 8.6 4.39997 7.8 4.69997 7.55C6.54997 5.95 9.04997 5.3 11.45 5.75C11.8 5.85 11.55 6.9 11.25 6.85" fill="#221B8F"/>
</svg>
