<svg width="36" height="36" viewBox="0 0 36 36" fill="none" xmlns="http://www.w3.org/2000/svg">
<path d="M27.865 16.751C27.865 10.509 23.454 6.763 17.938 6.763C12.422 6.763 8.10303 10.509 8.10303 16.751C8.10303 20.231 8.00003 23.236 12 24.641V27.363C12 28.397 12.966 29.235 14 29.235C15.035 29.235 16 28.397 16 27.363V25.393V27.363C16 28.397 16.965 29.235 18 29.235C19.036 29.235 20 28.397 20 27.363V25.393V27.363C20 28.397 20.966 29.235 22 29.235C23.034 29.235 24 28.397 24 27.363V24.641C28 23.236 27.865 20.231 27.865 16.751V16.751Z" fill="#6C63FF"/>
<path d="M13.629 18.624C15.3527 18.624 16.75 17.2267 16.75 15.503C16.75 13.7793 15.3527 12.382 13.629 12.382C11.9053 12.382 10.508 13.7793 10.508 15.503C10.508 17.2267 11.9053 18.624 13.629 18.624Z" fill="#292F33"/>
<path d="M25.488 15.503C25.488 17.227 25.488 18.624 22.367 18.624C19.247 18.624 19.247 17.227 19.247 15.503C19.247 15.0932 19.3277 14.6874 19.4846 14.3088C19.6414 13.9302 19.8712 13.5862 20.161 13.2965C20.4508 13.0067 20.7948 12.7769 21.1734 12.62C21.552 12.4632 21.9577 12.3825 22.3675 12.3825C22.7773 12.3825 23.1831 12.4632 23.5617 12.62C23.9403 12.7769 24.2843 13.0067 24.574 13.2965C24.8638 13.5862 25.0937 13.9302 25.2505 14.3088C25.4073 14.6874 25.488 15.0932 25.488 15.503V15.503ZM19.187 21.159C19.03 20.777 18.561 20.497 17.998 20.497C17.437 20.497 16.967 20.777 16.81 21.159C16.6551 21.202 16.5139 21.2842 16.4001 21.3977C16.2862 21.5112 16.2036 21.6522 16.1602 21.807C16.1168 21.9618 16.1141 22.1251 16.1524 22.2813C16.1906 22.4374 16.2685 22.581 16.3785 22.6983C16.4886 22.8155 16.627 22.9023 16.7804 22.9504C16.9338 22.9984 17.097 23.006 17.2543 22.9725C17.4115 22.939 17.5574 22.8655 17.6779 22.7591C17.7984 22.6526 17.8894 22.5169 17.942 22.365C17.961 22.365 17.979 22.369 17.998 22.369C18.017 22.369 18.035 22.365 18.055 22.365C18.1077 22.5169 18.1987 22.6526 18.3191 22.7591C18.4396 22.8655 18.5855 22.939 18.7428 22.9725C18.9 23.006 19.0632 22.9984 19.2166 22.9504C19.37 22.9023 19.5085 22.8155 19.6185 22.6983C19.7285 22.581 19.8064 22.4374 19.8447 22.2813C19.8829 22.1251 19.8802 21.9618 19.8368 21.807C19.7934 21.6522 19.7108 21.5112 19.597 21.3977C19.4831 21.2842 19.3419 21.202 19.187 21.159V21.159Z" fill="#292F33"/>
<path d="M11 27C11 26.633 11.075 26.287 11.195 25.962C10.211 25.515 9.364 24.88 8.692 23.992C7.65631 24.898 6.61394 25.7964 5.565 26.687C4.96814 26.2425 4.24419 26.0016 3.5 26C2.57174 26 1.6815 26.3687 1.02513 27.0251C0.368749 27.6815 0 28.5717 0 29.5C0.00164258 30.3474 0.311669 31.1653 0.87219 31.8009C1.43271 32.4365 2.20541 32.8464 3.046 32.954C3.1534 33.7947 3.5632 34.5675 4.19885 35.1281C4.83449 35.6886 5.65249 35.9986 6.5 36C7.42826 36 8.3185 35.6312 8.97487 34.9749C9.63125 34.3185 10 33.4283 10 32.5C10 31.725 9.74 31.015 9.314 30.435C9.914 29.729 10.56 28.975 11.245 28.185C11.0832 27.8109 10.9999 27.4076 11 27V27ZM27.872 11.518C28.756 10.749 29.601 10.023 30.387 9.355C30.9747 9.774 31.6783 9.99945 32.4 10C33.3283 10 34.2185 9.63125 34.8749 8.97487C35.5313 8.3185 35.9 7.42826 35.9 6.5C35.899 5.66946 35.602 4.86646 35.0622 4.23524C34.5225 3.60401 33.7753 3.1859 32.955 3.056C32.8498 2.21334 32.4408 1.43799 31.8048 0.875365C31.1687 0.312742 30.3492 0.00149608 29.5 0C28.5717 0 27.6815 0.368749 27.0251 1.02513C26.3687 1.6815 26 2.57174 26 3.5C26 4.275 26.26 4.985 26.687 5.565C26.093 6.265 25.454 7.01 24.776 7.792C26.076 8.663 27.137 9.887 27.872 11.518ZM3.5 10C4.24419 9.99836 4.96814 9.75751 5.565 9.313C6.364 9.992 7.226 10.732 8.129 11.517C8.864 9.886 9.924 8.662 11.225 7.791C10.5838 7.05236 9.94642 6.31035 9.313 5.565C9.75751 4.96814 9.99836 4.24419 10 3.5C10 2.57174 9.63125 1.6815 8.97487 1.02513C8.3185 0.368749 7.42826 0 6.5 0C5.65255 0.00164258 4.83467 0.311669 4.19907 0.87219C3.56347 1.43271 3.1536 2.20541 3.046 3.046C2.20541 3.1536 1.43271 3.56347 0.87219 4.19907C0.311669 4.83467 0.00164258 5.65255 0 6.5C0 7.42826 0.368749 8.3185 1.02513 8.97487C1.6815 9.63125 2.57174 10 3.5 10V10ZM32.4 26C31.648 26 30.956 26.242 30.386 26.645C29.434 25.836 28.396 24.944 27.307 23.992C26.635 24.881 25.788 25.515 24.804 25.963C24.925 26.287 25 26.633 25 27C25 27.421 24.912 27.821 24.755 28.185C25.44 28.975 26.086 29.729 26.686 30.435C26.2422 31.0321 26.0017 31.756 26 32.5C26 34.434 27.566 36 29.5 36C30.3493 35.9987 31.1689 35.6875 31.805 35.1249C32.4411 34.5622 32.85 33.7867 32.955 32.944C33.7753 32.8141 34.5225 32.396 35.0622 31.7648C35.602 31.1335 35.899 30.3305 35.9 29.5C35.9 27.566 34.334 26 32.4 26Z" fill="#221B8F"/>
</svg>
