<svg width="13" height="13" viewBox="0 0 13 13" fill="none" xmlns="http://www.w3.org/2000/svg">
<path fill-rule="evenodd" clip-rule="evenodd" d="M0.293 1.293C0.480528 1.10553 0.734836 1.00021 1 1.00021C1.26516 1.00021 1.51947 1.10553 1.707 1.293L6 5.586L10.293 1.293C10.3852 1.19749 10.4956 1.1213 10.6176 1.0689C10.7396 1.01649 10.8708 0.988901 11.0036 0.987747C11.1364 0.986593 11.2681 1.01189 11.391 1.06218C11.5139 1.11246 11.6255 1.18671 11.7194 1.2806C11.8133 1.37449 11.8875 1.48615 11.9378 1.60904C11.9881 1.73194 12.0134 1.86362 12.0123 1.9964C12.0111 2.12918 11.9835 2.2604 11.9311 2.3824C11.8787 2.50441 11.8025 2.61475 11.707 2.707L7.414 7L11.707 11.293C11.8892 11.4816 11.99 11.7342 11.9877 11.9964C11.9854 12.2586 11.8802 12.5094 11.6948 12.6948C11.5094 12.8802 11.2586 12.9854 10.9964 12.9877C10.7342 12.9899 10.4816 12.8892 10.293 12.707L6 8.414L1.707 12.707C1.5184 12.8892 1.2658 12.9899 1.0036 12.9877C0.741402 12.9854 0.49059 12.8802 0.305182 12.6948C0.119773 12.5094 0.0146042 12.2586 0.0123258 11.9964C0.0100473 11.7342 0.110842 11.4816 0.293 11.293L4.586 7L0.293 2.707C0.105529 2.51947 0.000213623 2.26516 0.000213623 2C0.000213623 1.73483 0.105529 1.48053 0.293 1.293V1.293Z" fill="black"/>
</svg>
